# xmcd CD database file
# Copyright (C) 1993-1998 Ti Kan
#
# Track frame offsets:
# 150
# 25122
# 51987
# 78630
# 100885
# 118967
# 136970
# 152792
# 175182
# 198602
# 223445
# 245705
#
# Disc length: 3489 seconds
# Revision: 0
# Processed by: cddbd v1.4b41PL1 Copyright (c) Steve Scherf et al.
# Submitted via: CDSpectrumPro v3.3.335
#
DISCID=b70d9f0c
DTITLE=Various Artist - A Tribute to RD Burman
DYEAR=1900
DGENRE=
TTITLE0=Pijush Dhar (Hawaiian Guitar) - Raina Beeti Jaye
TTITLE1=Manhori Singh (Saxophone), Ramesh Iyer (Electric Guitar) - Karvatein B
TTITLE1=adalte Rahe (Aap Ki Kasaam)
TTITLE2=Manhori Singh (Saxophone), Ramesh Iyer (Electric Guitar) - Tere Bina Z
TTITLE2=indagi Se Koi (Aandhi)
TTITLE3=Manhori Singh (Saxophone) - Na Koi Umang Hai (Kati Patang)
TTITLE4=Manhori Singh (Saxophone) - Bahon Me Chale Aao
TTITLE5=Ramesh Iyer (Electric Guitar) - Hamein Tumse Pyar Kitna (Kudrat)
TTITLE6=Pijush Dhar (Hawaiian Guitar) - Beeti Na Bitaai Raina (Parichay)
TTITLE7=Manhori Singh (Saxophone) - Sharam Aaati Hai Magar (Padosan)
TTITLE8=Manhori Singh (Saxophone), Rajendra Singh (Swarline) - Naam Gum Jayega
TTITLE9=Manhori Singh (Saxophone) - Mere Naina Sawan Bhadon (Mehbooba)
TTITLE10=Rajendra Singh (Swarline) - Is Mad Se Jaate Hai (Aandhi)
TTITLE11=Madhurkar (Shenai) - Ghar Aaja Ghir Aai (Chote Nwab)
EXTD=SVCD 1095A T Series Recording. Music Supervision By: Ramesh Iyyer. 1993
EXTT0=
EXTT1=
EXTT2=
EXTT3=
EXTT4=
EXTT5=
EXTT6=
EXTT7=
EXTT8=
EXTT9=
EXTT10=
EXTT11=
PLAYORDER=
